# xmcd
#
# Track frame offsets: 
#        150
#        19174
#        35515
#        60356
#        77224
#        100825
#        122119
#        139739
#        163105
#        181545
#        199398
#        217112
#
# Disc length: 3234 seconds
#
# Revision: 0
# Processed by: cddbd v1.5.2PL0 Copyright (c) Steve Scherf et al.
# Submitted via: ExactAudioCopy v0.99pb4
#
DISCID=a50ca00c
DTITLE=Jumpin' Jack's - Rhumba Lee
DYEAR=2003
DGENRE=Blues
TTITLE0=Just What I Want
TTITLE1=Losing My Sin
TTITLE2=Satisfy Me Right
TTITLE3=There I Was
TTITLE4=Rhumba Lee
TTITLE5=My Heart Is Mended
TTITLE6=Another Fool
TTITLE7=Room With A View
TTITLE8=That's A Pretty Good Love
TTITLE9=Mother-In-Law Blues
TTITLE10=If You Ever Get Lonesome
TTITLE11=Time's Blues
EXTD=
EXTT0=
EXTT1=
EXTT2=
EXTT3=
EXTT4=
EXTT5=
EXTT6=
EXTT7=
EXTT8=
EXTT9=
EXTT10=
EXTT11=
PLAYORDER=
